<?xml version="1.0" encoding="UTF-8"?>
<!DOCTYPE svg PUBLIC "-//W3C//DTD SVG 1.1//EN" "http://www.w3.org/Graphics/SVG/1.1/DTD/svg11.dtd">
<svg xmlns="http://www.w3.org/2000/svg" version="1.1" width="500px" height="500px" style="shape-rendering:geometricPrecision; text-rendering:geometricPrecision; image-rendering:optimizeQuality; fill-rule:evenodd; clip-rule:evenodd" xmlns:xlink="http://www.w3.org/1999/xlink">
<g><path style="opacity:0.745" fill="#7a747d" d="M 268.5,105.5 C 259.833,105.5 251.167,105.5 242.5,105.5C 243.261,104.609 244.261,103.942 245.5,103.5C 251.374,104.508 257.374,104.508 263.5,103.5C 265.336,104.028 267.003,104.694 268.5,105.5 Z"/></g>
<g><path style="opacity:0.455" fill="#4f4851" d="M 231.5,106.5 C 230.791,107.404 229.791,107.737 228.5,107.5C 229.172,106.733 230.005,106.066 231,105.5C 231.399,105.728 231.565,106.062 231.5,106.5 Z"/></g>
<g><path style="opacity:0.013" fill="#000006" d="M 295.5,107.5 C 297.771,106.946 300.104,107.446 302.5,109C 299.935,109.609 297.601,109.109 295.5,107.5 Z"/></g>
<g><path style="opacity:0.376" fill="#39343c" d="M 222.5,108.5 C 221.609,109.11 220.609,109.443 219.5,109.5C 220.221,107.618 221.221,107.285 222.5,108.5 Z"/></g>
<g><path style="opacity:1" fill="#a19ca1" d="M 289.5,109.5 C 286.682,109.348 283.682,109.348 280.5,109.5C 279.452,108.452 278.452,107.452 277.5,106.5C 279.934,106.701 282.434,106.701 285,106.5C 286.632,107.528 288.132,108.528 289.5,109.5 Z"/></g>
<g><path style="opacity:0.071" fill="#322932" d="M 300.5,112.5 C 299.508,112.672 298.842,112.338 298.5,111.5C 299.925,109.969 300.591,110.302 300.5,112.5 Z"/></g>
<g><path style="opacity:0.4" fill="#363136" d="M 210.5,111.5 C 209.486,112.674 208.153,113.34 206.5,113.5C 207.287,111.896 208.62,111.229 210.5,111.5 Z"/></g>
<g><path style="opacity:0.573" fill="#524753" d="M 191.5,119.5 C 191.027,120.906 190.027,121.573 188.5,121.5C 188.973,120.094 189.973,119.427 191.5,119.5 Z"/></g>
<g><path style="opacity:1" fill="#f6f6f6" d="M 242.5,105.5 C 251.167,105.5 259.833,105.5 268.5,105.5C 271.57,105.368 274.57,105.701 277.5,106.5C 278.452,107.452 279.452,108.452 280.5,109.5C 283.682,109.348 286.682,109.348 289.5,109.5C 291.807,109.986 293.973,109.986 296,109.5C 296.708,110.381 297.542,111.047 298.5,111.5C 298.842,112.338 299.508,112.672 300.5,112.5C 314.938,117.213 327.938,124.213 339.5,133.5C 339.833,134.5 340.5,135.167 341.5,135.5C 347.521,139.521 352.521,144.521 356.5,150.5C 357.642,153.929 358.975,157.262 360.5,160.5C 360.281,161.938 359.781,163.271 359,164.5C 357.022,161.186 354.189,159.019 350.5,158C 349.929,156.795 349.262,155.628 348.5,154.5C 347.833,155.167 347.167,155.833 346.5,156.5C 345.167,155.167 343.833,155.167 342.5,156.5C 338.933,154.531 335.266,154.198 331.5,155.5C 326.509,154.91 321.509,154.41 316.5,154C 315.034,153.365 313.7,152.531 312.5,151.5C 311.346,153.856 310.013,154.023 308.5,152C 302.984,151.753 297.65,150.92 292.5,149.5C 290.285,149.67 288.285,150.337 286.5,151.5C 285.3,150.469 283.966,149.635 282.5,149C 276.373,148.902 270.373,148.069 264.5,146.5C 261.756,147.491 259.089,147.157 256.5,145.5C 255.784,146.311 254.95,146.978 254,147.5C 249.892,146.311 245.892,144.977 242,143.5C 238.529,144.455 235.029,144.622 231.5,144C 229.182,142.007 226.516,140.841 223.5,140.5C 223.719,141.675 223.386,142.675 222.5,143.5C 220.197,140.997 217.531,140.33 214.5,141.5C 208.197,140.166 201.864,138.833 195.5,137.5C 193.514,137.787 191.68,138.453 190,139.5C 187.358,138.041 184.691,137.708 182,138.5C 178.54,138.082 177.207,136.415 178,133.5C 176.686,134.313 175.519,135.313 174.5,136.5C 173.808,135.975 173.308,135.308 173,134.5C 171.51,136.558 169.51,137.891 167,138.5C 166.7,136.934 167.2,135.601 168.5,134.5C 170.502,132.518 172.835,130.852 175.5,129.5C 176.5,129.167 177.167,128.5 177.5,127.5C 181.034,125.234 184.7,123.234 188.5,121.5C 190.027,121.573 191.027,120.906 191.5,119.5C 196.153,116.984 201.153,114.984 206.5,113.5C 208.153,113.34 209.486,112.674 210.5,111.5C 212.017,111.489 213.184,110.823 214,109.5C 215.707,110.138 217.54,110.138 219.5,109.5C 220.609,109.443 221.609,109.11 222.5,108.5C 224.379,107.659 226.379,107.325 228.5,107.5C 229.791,107.737 230.791,107.404 231.5,106.5C 235.119,105.756 238.785,105.423 242.5,105.5 Z"/></g>
<g><path style="opacity:1" fill="#e5e0e3" d="M 287.5,96.5 C 336.855,108.945 372.355,138.278 394,184.5C 396.666,190.333 398.833,196.333 400.5,202.5C 396.837,199.814 394.837,196.147 394.5,191.5C 393.502,188.836 392.002,186.503 390,184.5C 389.13,185.108 388.63,185.941 388.5,187C 390.075,189.815 390.408,192.648 389.5,195.5C 384.255,181.677 377.422,168.677 369,156.5C 362.332,147.332 354.498,139.332 345.5,132.5C 345.5,131.833 345.167,131.5 344.5,131.5C 322.392,113.24 297.059,102.573 268.5,99.5C 274.484,99.6313 280.318,99.6313 286,99.5C 288.735,101.396 291.568,102.062 294.5,101.5C 295.696,101.154 295.696,100.654 294.5,100C 291.602,99.564 289.269,98.3974 287.5,96.5 Z"/></g>
<g><path style="opacity:0.078" fill="#27262e" d="M 177.5,127.5 C 177.167,128.5 176.5,129.167 175.5,129.5C 175.5,128.167 176.167,127.5 177.5,127.5 Z"/></g>
<g><path style="opacity:0.02" fill="#07002a" d="M 344.5,131.5 C 345.167,131.5 345.5,131.833 345.5,132.5C 344.503,133.713 343.503,133.546 342.5,132C 343.094,131.536 343.761,131.369 344.5,131.5 Z"/></g>
<g><path style="opacity:1" fill="#f0f0f0" d="M 356.5,150.5 C 357.833,151.167 358.833,152.167 359.5,153.5C 359.833,154.5 360.5,155.167 361.5,155.5C 363.252,157.246 364.585,159.246 365.5,161.5C 365.833,162.5 366.5,163.167 367.5,163.5C 368.483,165.291 369.816,166.791 371.5,168C 371.167,168.333 370.833,168.667 370.5,169C 371.823,169.816 372.489,170.983 372.5,172.5C 371.588,173.738 371.421,175.072 372,176.5C 372.333,176.167 372.667,175.833 373,175.5C 373.281,179.179 374.448,182.512 376.5,185.5C 376,186.5 375.5,187.5 375,188.5C 373.056,184.89 370.723,181.557 368,178.5C 364.683,178.511 361.35,178.511 358,178.5C 356.274,178.054 354.774,177.221 353.5,176C 342.475,175.738 331.641,174.238 321,171.5C 318.561,173.416 315.894,173.416 313,171.5C 312.127,171.735 311.293,172.069 310.5,172.5C 304.627,170.931 298.627,170.098 292.5,170C 291.034,169.365 289.7,168.531 288.5,167.5C 287.833,168.167 287.167,168.833 286.5,169.5C 283.816,166.961 281.149,166.961 278.5,169.5C 276.5,168.167 274.5,166.833 272.5,165.5C 271.833,166.167 271.167,166.833 270.5,167.5C 267.295,164.321 263.629,163.655 259.5,165.5C 253.052,165.09 246.718,164.09 240.5,162.5C 237.756,163.491 235.089,163.157 232.5,161.5C 231.784,162.311 230.95,162.978 230,163.5C 220.894,161.771 211.727,160.271 202.5,159C 200.987,156.977 199.654,157.144 198.5,159.5C 196.197,156.997 193.531,156.33 190.5,157.5C 184.197,156.166 177.864,154.833 171.5,153.5C 169.514,153.787 167.68,154.453 166,155.5C 164.128,154.932 162.295,154.265 160.5,153.5C 157.775,155.429 154.775,155.929 151.5,155C 153.082,152.915 155.082,151.415 157.5,150.5C 157.167,149.833 156.833,149.167 156.5,148.5C 157.372,146.55 158.039,144.55 158.5,142.5C 161.539,139.46 164.873,136.794 168.5,134.5C 167.2,135.601 166.7,136.934 167,138.5C 169.51,137.891 171.51,136.558 173,134.5C 173.308,135.308 173.808,135.975 174.5,136.5C 175.519,135.313 176.686,134.313 178,133.5C 177.207,136.415 178.54,138.082 182,138.5C 184.691,137.708 187.358,138.041 190,139.5C 191.68,138.453 193.514,137.787 195.5,137.5C 201.864,138.833 208.197,140.166 214.5,141.5C 217.531,140.33 220.197,140.997 222.5,143.5C 223.386,142.675 223.719,141.675 223.5,140.5C 226.516,140.841 229.182,142.007 231.5,144C 235.029,144.622 238.529,144.455 242,143.5C 245.892,144.977 249.892,146.311 254,147.5C 254.95,146.978 255.784,146.311 256.5,145.5C 259.089,147.157 261.756,147.491 264.5,146.5C 270.373,148.069 276.373,148.902 282.5,149C 283.966,149.635 285.3,150.469 286.5,151.5C 288.285,150.337 290.285,149.67 292.5,149.5C 297.65,150.92 302.984,151.753 308.5,152C 310.013,154.023 311.346,153.856 312.5,151.5C 313.7,152.531 315.034,153.365 316.5,154C 321.509,154.41 326.509,154.91 331.5,155.5C 335.266,154.198 338.933,154.531 342.5,156.5C 343.833,155.167 345.167,155.167 346.5,156.5C 347.167,155.833 347.833,155.167 348.5,154.5C 349.262,155.628 349.929,156.795 350.5,158C 354.189,159.019 357.022,161.186 359,164.5C 359.781,163.271 360.281,161.938 360.5,160.5C 358.975,157.262 357.642,153.929 356.5,150.5 Z"/></g>
<g><path style="opacity:0.043" fill="#171518" d="M 341.5,135.5 C 340.5,135.167 339.833,134.5 339.5,133.5C 339.435,133.062 339.601,132.728 340,132.5C 341.039,133.244 341.539,134.244 341.5,135.5 Z"/></g>
<g><path style="opacity:0.859" fill="#9b8f9e" d="M 141.5,134.5 C 140.415,136.587 138.749,137.92 136.5,138.5C 137.585,136.413 139.251,135.08 141.5,134.5 Z"/></g>
<g><path style="opacity:1" fill="#e6e6e6" d="M 158.5,142.5 C 158.039,144.55 157.372,146.55 156.5,148.5C 156.833,149.167 157.167,149.833 157.5,150.5C 155.082,151.415 153.082,152.915 151.5,155C 154.775,155.929 157.775,155.429 160.5,153.5C 162.295,154.265 164.128,154.932 166,155.5C 167.68,154.453 169.514,153.787 171.5,153.5C 177.864,154.833 184.197,156.166 190.5,157.5C 193.531,156.33 196.197,156.997 198.5,159.5C 199.654,157.144 200.987,156.977 202.5,159C 211.727,160.271 220.894,161.771 230,163.5C 230.95,162.978 231.784,162.311 232.5,161.5C 235.089,163.157 237.756,163.491 240.5,162.5C 246.718,164.09 253.052,165.09 259.5,165.5C 263.629,163.655 267.295,164.321 270.5,167.5C 271.167,166.833 271.833,166.167 272.5,165.5C 274.5,166.833 276.5,168.167 278.5,169.5C 281.149,166.961 283.816,166.961 286.5,169.5C 287.167,168.833 287.833,168.167 288.5,167.5C 289.7,168.531 291.034,169.365 292.5,170C 298.627,170.098 304.627,170.931 310.5,172.5C 311.293,172.069 312.127,171.735 313,171.5C 315.894,173.416 318.561,173.416 321,171.5C 331.641,174.238 342.475,175.738 353.5,176C 354.774,177.221 356.274,178.054 358,178.5C 361.35,178.511 364.683,178.511 368,178.5C 370.723,181.557 373.056,184.89 375,188.5C 375.5,187.5 376,186.5 376.5,185.5C 374.448,182.512 373.281,179.179 373,175.5C 372.667,175.833 372.333,176.167 372,176.5C 371.421,175.072 371.588,173.738 372.5,172.5C 374.279,173.67 375.279,175.336 375.5,177.5C 375.427,179.027 376.094,180.027 377.5,180.5C 387.747,201.559 392.413,224.226 391.5,248.5C 390.894,251.167 390.061,253.834 389,256.5C 388.501,251.845 388.334,247.179 388.5,242.5C 388.845,235.055 387.345,228.055 384,221.5C 382.493,222.535 380.993,222.368 379.5,221C 375.514,220.501 371.514,220.334 367.5,220.5C 367.5,219.5 367.5,218.5 367.5,217.5C 364.212,217.073 361.212,217.74 358.5,219.5C 355.911,217.843 353.244,217.509 350.5,218.5C 348.571,217.62 346.737,216.62 345,215.5C 344.127,215.735 343.293,216.069 342.5,216.5C 336.68,216.037 330.847,215.037 325,213.5C 322.775,213.565 320.608,213.898 318.5,214.5C 314.116,213.381 309.783,212.381 305.5,211.5C 303.265,212.219 300.931,212.052 298.5,211C 292.167,210.667 285.833,210.333 279.5,210C 279.167,209.667 278.833,209.333 278.5,209C 286.522,209.72 293.189,207.22 298.5,201.5C 305.324,195.538 307.49,188.204 305,179.5C 304.632,178.09 303.799,177.09 302.5,176.5C 298.298,178.134 293.965,179.301 289.5,180C 271.839,181.077 254.172,182.077 236.5,183C 231.762,183.519 227.095,184.352 222.5,185.5C 219.482,185.335 216.482,185.502 213.5,186C 212.753,188.177 211.42,190.511 209.5,193C 208.521,195.433 207.855,197.933 207.5,200.5C 202.872,200.884 198.539,200.05 194.5,198C 190.442,197.233 186.442,197.4 182.5,198.5C 180.119,196.604 177.619,196.271 175,197.5C 173.933,196.809 172.766,196.309 171.5,196C 164.157,195.444 156.823,194.777 149.5,194C 147.484,191.711 145.151,191.211 142.5,192.5C 140.291,191.894 138.124,191.227 136,190.5C 135.692,191.308 135.192,191.975 134.5,192.5C 131.724,192.054 129.224,191.054 127,189.5C 125.796,190.471 125.296,191.471 125.5,192.5C 124.795,189.911 124.795,187.244 125.5,184.5C 126.471,182.517 127.471,180.517 128.5,178.5C 129.906,178.027 130.573,177.027 130.5,175.5C 137.707,162.789 147.041,151.789 158.5,142.5 Z"/></g>
<g><path style="opacity:0.012" fill="#1a171e" d="M 359.5,153.5 C 360.833,153.5 361.5,154.167 361.5,155.5C 360.5,155.167 359.833,154.5 359.5,153.5 Z"/></g>
<g><path style="opacity:0.008" fill="#1e1c1f" d="M 365.5,161.5 C 366.833,161.5 367.5,162.167 367.5,163.5C 366.5,163.167 365.833,162.5 365.5,161.5 Z"/></g>
<g><path style="opacity:0.22" fill="#413f45" d="M 130.5,175.5 C 130.573,177.027 129.906,178.027 128.5,178.5C 128.427,176.973 129.094,175.973 130.5,175.5 Z"/></g>
<g><path style="opacity:1" fill="#c9c4ca" d="M 127.5,169.5 C 125.003,175.165 122.003,180.498 118.5,185.5C 118.069,182.146 119.069,179.313 121.5,177C 121.355,176.228 121.022,175.561 120.5,175C 122.617,173.269 124.117,171.102 125,168.5C 125.671,169.252 126.504,169.586 127.5,169.5 Z"/></g>
<g><path style="opacity:0.071" fill="#2c2a37" d="M 375.5,177.5 C 376.906,177.973 377.573,178.973 377.5,180.5C 376.094,180.027 375.427,179.027 375.5,177.5 Z"/></g>
<g><path style="opacity:0.149" fill="#302c34" d="M 391.5,203.5 C 392.338,203.842 392.672,204.508 392.5,205.5C 391.662,205.842 391.328,206.508 391.5,207.5C 390.314,206.295 390.314,204.961 391.5,203.5 Z"/></g>
<g><path style="opacity:0.551" fill="#8a868f" d="M 276.5,207.5 C 269.274,207.849 262.274,208.849 255.5,210.5C 254.733,209.828 254.066,208.995 253.5,208C 261.159,207.5 268.826,207.334 276.5,207.5 Z"/></g>
<g><path style="opacity:1" fill="#dcdcdd" d="M 298.5,201.5 C 293.189,207.22 286.522,209.72 278.5,209C 278.833,209.333 279.167,209.667 279.5,210C 285.833,210.333 292.167,210.667 298.5,211C 300.931,212.052 303.265,212.219 305.5,211.5C 309.783,212.381 314.116,213.381 318.5,214.5C 320.608,213.898 322.775,213.565 325,213.5C 330.847,215.037 336.68,216.037 342.5,216.5C 343.293,216.069 344.127,215.735 345,215.5C 346.737,216.62 348.571,217.62 350.5,218.5C 353.244,217.509 355.911,217.843 358.5,219.5C 361.212,217.74 364.212,217.073 367.5,217.5C 367.5,218.5 367.5,219.5 367.5,220.5C 371.514,220.334 375.514,220.501 379.5,221C 380.993,222.368 382.493,222.535 384,221.5C 387.345,228.055 388.845,235.055 388.5,242.5C 387.883,242.611 387.383,242.944 387,243.5C 386.131,238.492 385.464,238.825 385,244.5C 384.691,243.234 384.191,242.067 383.5,241C 378.897,240.889 374.564,239.889 370.5,238C 366.442,237.233 362.442,237.4 358.5,238.5C 356.119,236.604 353.619,236.271 351,237.5C 344.585,233.689 337.752,232.689 330.5,234.5C 326.901,234.779 323.734,233.779 321,231.5C 317.112,231.545 313.278,231.545 309.5,231.5C 307.896,231.061 306.396,230.394 305,229.5C 297.061,230.489 289.228,229.822 281.5,227.5C 278.729,228.121 275.895,227.788 273,226.5C 270.309,227.292 267.642,226.959 265,225.5C 264.228,225.645 263.561,225.978 263,226.5C 262.667,225.167 262.333,223.833 262,222.5C 261.751,223.624 261.251,224.624 260.5,225.5C 258.528,221.42 258.528,217.253 260.5,213C 258.922,211.906 257.255,211.072 255.5,210.5C 262.274,208.849 269.274,207.849 276.5,207.5C 284.319,207.047 291.652,205.047 298.5,201.5 Z"/></g>
<g><path style="opacity:0.231" fill="#3b3741" d="M 211.5,209.5 C 212.906,209.973 213.573,210.973 213.5,212.5C 212.094,212.027 211.427,211.027 211.5,209.5 Z"/></g>
<g><path style="opacity:1" fill="#efebeb" d="M 287.5,96.5 C 289.269,98.3974 291.602,99.564 294.5,100C 295.696,100.654 295.696,101.154 294.5,101.5C 291.568,102.062 288.735,101.396 286,99.5C 280.318,99.6313 274.484,99.6313 268.5,99.5C 208.637,97.5989 161.637,120.932 127.5,169.5C 126.504,169.586 125.671,169.252 125,168.5C 124.117,171.102 122.617,173.269 120.5,175C 121.022,175.561 121.355,176.228 121.5,177C 119.069,179.313 118.069,182.146 118.5,185.5C 99.1799,226.811 97.5132,268.811 113.5,311.5C 115.582,312.894 117.249,312.561 118.5,310.5C 118.577,309.25 119.244,308.417 120.5,308C 119.313,305.226 117.98,302.559 116.5,300C 117.094,299.536 117.761,299.369 118.5,299.5C 122.725,308.952 127.725,317.952 133.5,326.5C 141.369,339.372 151.369,350.372 163.5,359.5C 197.999,385.705 236.666,394.538 279.5,386C 288.289,383.459 296.955,380.626 305.5,377.5C 304.167,378.833 302.833,380.167 301.5,381.5C 299.645,382.69 297.812,384.023 296,385.5C 295.667,385.167 295.333,384.833 295,384.5C 289.373,386.998 283.873,388.665 278.5,389.5C 277.209,389.263 276.209,389.596 275.5,390.5C 273.565,391.15 271.565,391.483 269.5,391.5C 267.901,391.232 266.568,391.566 265.5,392.5C 262.57,393.299 259.57,393.632 256.5,393.5C 256.167,393.5 255.833,393.5 255.5,393.5C 248.5,393.5 241.5,393.5 234.5,393.5C 231.833,393.5 229.167,393.5 226.5,393.5C 225.391,393.443 224.391,393.11 223.5,392.5C 222.833,392.5 222.167,392.5 221.5,392.5C 220.041,392.567 218.708,392.234 217.5,391.5C 216.833,391.5 216.167,391.5 215.5,391.5C 214.609,390.89 213.609,390.557 212.5,390.5C 211.504,390.414 210.671,390.748 210,391.5C 209.395,389.519 208.395,389.185 207,390.5C 206.147,388.875 205.147,388.542 204,389.5C 202.559,388.13 200.892,387.13 199,386.5C 177.542,379.913 158.042,366.746 140.5,347C 139.207,346.51 137.873,346.343 136.5,346.5C 139.688,354.483 145.021,360.817 152.5,365.5C 152.5,366.167 152.833,366.5 153.5,366.5C 155.55,368.547 157.883,370.214 160.5,371.5C 160.5,372.167 160.833,372.5 161.5,372.5C 163.975,375.241 166.975,377.241 170.5,378.5C 170.842,379.338 171.508,379.672 172.5,379.5C 172.5,380.167 172.833,380.5 173.5,380.5C 174.514,381.674 175.847,382.34 177.5,382.5C 179.849,384.341 182.515,385.674 185.5,386.5C 186.78,387.931 188.447,388.598 190.5,388.5C 195.525,391.068 200.859,393.068 206.5,394.5C 206.842,395.338 207.508,395.672 208.5,395.5C 227.35,399.251 246.35,400.251 265.5,398.5C 278.126,398.234 290.126,395.401 301.5,390C 302.756,389.583 303.423,388.75 303.5,387.5C 313.435,382.195 323.102,376.362 332.5,370C 341.301,363.033 349.634,355.533 357.5,347.5C 356.978,350.253 356.144,352.92 355,355.5C 353.951,354.483 352.784,354.316 351.5,355C 350.891,357.51 349.558,359.51 347.5,361C 348.416,361.374 349.25,361.874 350,362.5C 351.626,359.934 353.126,360.101 354.5,363C 350.81,363.424 350.643,364.258 354,365.5C 357.048,361.408 360.548,357.742 364.5,354.5C 365.325,353.614 366.325,353.281 367.5,353.5C 367.34,351.801 367.506,350.134 368,348.5C 370.833,347 373,344.833 374.5,342C 375.448,341.517 376.448,341.351 377.5,341.5C 358.901,367.582 334.568,386.415 304.5,398C 257.554,414.069 212.221,410.069 168.5,386C 118.758,354.537 93.0913,309.204 91.5,250C 91.3813,206.48 106.381,169.314 136.5,138.5C 138.749,137.92 140.415,136.587 141.5,134.5C 166.616,110.447 196.616,96.2801 231.5,92C 245.534,91.1579 259.534,91.4912 273.5,93C 278.368,93.8835 283.034,95.0502 287.5,96.5 Z M 212.5,390.5 C 213.221,392.382 214.221,392.715 215.5,391.5C 216.167,391.5 216.833,391.5 217.5,391.5C 214.23,393.225 210.564,394.225 206.5,394.5C 200.859,393.068 195.525,391.068 190.5,388.5C 193.313,388.77 195.979,389.27 198.5,390C 195.513,387.918 192.179,386.751 188.5,386.5C 187.5,385.167 186.5,385.167 185.5,386.5C 182.515,385.674 179.849,384.341 177.5,382.5C 175.847,382.34 174.514,381.674 173.5,380.5C 175.793,379.699 175.46,379.032 172.5,378.5C 171.833,377.167 171.167,377.167 170.5,378.5C 166.975,377.241 163.975,375.241 161.5,372.5C 162.547,371.922 162.38,371.256 161,370.5C 160.601,370.728 160.435,371.062 160.5,371.5C 157.883,370.214 155.55,368.547 153.5,366.5C 154.547,365.922 154.38,365.256 153,364.5C 152.601,364.728 152.435,365.062 152.5,365.5C 145.021,360.817 139.688,354.483 136.5,346.5C 137.873,346.343 139.207,346.51 140.5,347C 158.042,366.746 177.542,379.913 199,386.5C 200.892,387.13 202.559,388.13 204,389.5C 205.147,388.542 206.147,388.875 207,390.5C 208.395,389.185 209.395,389.519 210,391.5C 210.671,390.748 211.504,390.414 212.5,390.5 Z M 185.5,386.5 C 186.5,386.5 187.5,386.5 188.5,386.5C 189.167,387.167 189.833,387.833 190.5,388.5C 188.447,388.598 186.78,387.931 185.5,386.5 Z M 226.5,393.5 C 229.167,393.5 231.833,393.5 234.5,393.5C 233.508,395.026 232.008,395.693 230,395.5C 228.319,395.392 227.152,394.725 226.5,393.5 Z"/></g>
<g><path style="opacity:0.999" fill="#dad5dc" d="M 400.5,203.5 C 403.501,212.157 405.501,221.157 406.5,230.5C 405.414,230.38 404.747,229.713 404.5,228.5C 403.27,223.515 402.103,218.515 401,213.5C 400.535,212.069 399.701,210.903 398.5,210C 398.833,208.053 399.5,205.886 400.5,203.5 Z"/></g>
<g><path style="opacity:0.667" fill="#645f6a" d="M 222.5,224.5 C 222.665,221.482 222.498,218.482 222,215.5C 221.184,216.823 220.017,217.489 218.5,217.5C 219.976,215.5 221.809,213.833 224,212.5C 224.145,216.677 223.645,220.677 222.5,224.5 Z"/></g>
<g><path style="opacity:1" fill="#d3d3d4" d="M 255.5,210.5 C 257.255,211.072 258.922,211.906 260.5,213C 258.528,217.253 258.528,221.42 260.5,225.5C 261.251,224.624 261.751,223.624 262,222.5C 262.333,223.833 262.667,225.167 263,226.5C 263.561,225.978 264.228,225.645 265,225.5C 267.642,226.959 270.309,227.292 273,226.5C 275.895,227.788 278.729,228.121 281.5,227.5C 289.228,229.822 297.061,230.489 305,229.5C 306.396,230.394 307.896,231.061 309.5,231.5C 313.278,231.545 317.112,231.545 321,231.5C 323.734,233.779 326.901,234.779 330.5,234.5C 337.752,232.689 344.585,233.689 351,237.5C 353.619,236.271 356.119,236.604 358.5,238.5C 362.442,237.4 366.442,237.233 370.5,238C 374.564,239.889 378.897,240.889 383.5,241C 384.191,242.067 384.691,243.234 385,244.5C 385.464,238.825 386.131,238.492 387,243.5C 387.383,242.944 387.883,242.611 388.5,242.5C 388.334,247.179 388.501,251.845 389,256.5C 390.061,253.834 390.894,251.167 391.5,248.5C 391.227,258.352 389.894,268.019 387.5,277.5C 386.691,275.708 386.191,273.708 386,271.5C 385.818,274.226 385.318,276.893 384.5,279.5C 382.278,278.222 379.944,277.222 377.5,276.5C 376.328,276.919 375.328,277.585 374.5,278.5C 368.302,276.367 361.969,274.7 355.5,273.5C 353.616,273.716 351.949,274.383 350.5,275.5C 347.911,273.843 345.244,273.509 342.5,274.5C 340.998,273.917 339.665,273.084 338.5,272C 330.821,271.276 323.155,270.443 315.5,269.5C 313.772,269.59 312.106,269.923 310.5,270.5C 306.116,269.381 301.783,268.381 297.5,267.5C 296.558,267.608 295.725,267.941 295,268.5C 290.499,267.231 285.999,265.898 281.5,264.5C 283.766,263.686 286.1,263.186 288.5,263C 286.122,262.026 286.456,261.359 289.5,261C 288.552,260.517 287.552,260.351 286.5,260.5C 286.5,259.5 286.5,258.5 286.5,257.5C 289.642,254.171 291.309,250.171 291.5,245.5C 292.099,242.052 291.099,239.386 288.5,237.5C 278.435,240.932 268.102,243.266 257.5,244.5C 255.821,244.715 254.821,244.048 254.5,242.5C 256.535,231.873 256.869,221.206 255.5,210.5 Z"/></g>
<g><path style="opacity:1" fill="#d4d4d4" d="M 125.5,184.5 C 124.795,187.244 124.795,189.911 125.5,192.5C 125.296,191.471 125.796,190.471 127,189.5C 129.224,191.054 131.724,192.054 134.5,192.5C 135.192,191.975 135.692,191.308 136,190.5C 138.124,191.227 140.291,191.894 142.5,192.5C 145.151,191.211 147.484,191.711 149.5,194C 156.823,194.777 164.157,195.444 171.5,196C 172.766,196.309 173.933,196.809 175,197.5C 177.619,196.271 180.119,196.604 182.5,198.5C 186.442,197.4 190.442,197.233 194.5,198C 198.539,200.05 202.872,200.884 207.5,200.5C 207.855,197.933 208.521,195.433 209.5,193C 211.42,190.511 212.753,188.177 213.5,186C 216.482,185.502 219.482,185.335 222.5,185.5C 217.967,187.524 214.134,190.524 211,194.5C 210.608,197.188 210.108,199.855 209.5,202.5C 210.173,204.851 210.84,207.184 211.5,209.5C 211.427,211.027 212.094,212.027 213.5,212.5C 214.806,214.473 216.473,216.139 218.5,217.5C 220.017,217.489 221.184,216.823 222,215.5C 222.498,218.482 222.665,221.482 222.5,224.5C 221.883,224.611 221.383,224.944 221,225.5C 220.501,229.152 220.335,232.818 220.5,236.5C 220.784,238.415 220.451,240.081 219.5,241.5C 217.999,244.261 216.332,247.095 214.5,250C 215.856,251.567 216.523,253.4 216.5,255.5C 215.127,255.343 213.793,255.51 212.5,256C 213.554,257.388 213.72,258.888 213,260.5C 211.398,255.069 210.065,254.735 209,259.5C 208.5,259 208,258.5 207.5,258C 199.701,257.593 192.201,256.093 185,253.5C 178.891,253.276 172.891,253.276 167,253.5C 163.23,252.034 159.396,250.7 155.5,249.5C 153.616,249.716 151.949,250.383 150.5,251.5C 147.911,249.843 145.244,249.509 142.5,250.5C 140.571,249.62 138.737,248.62 137,247.5C 133.112,247.545 129.278,247.545 125.5,247.5C 123.896,247.061 122.396,246.394 121,245.5C 117.895,246.367 114.728,246.701 111.5,246.5C 109.089,261.445 110.755,275.778 116.5,289.5C 116.851,292.903 117.518,296.237 118.5,299.5C 117.761,299.369 117.094,299.536 116.5,300C 117.98,302.559 119.313,305.226 120.5,308C 119.244,308.417 118.577,309.25 118.5,310.5C 115.702,306.438 113.702,302.271 112.5,298C 112.222,295.861 112.222,293.695 112.5,291.5C 112.672,290.508 112.338,289.842 111.5,289.5C 111.5,288.833 111.5,288.167 111.5,287.5C 111.737,286.209 111.404,285.209 110.5,284.5C 109.735,281.904 109.401,279.237 109.5,276.5C 109.768,274.901 109.434,273.568 108.5,272.5C 108.492,269.455 108.159,266.455 107.5,263.5C 106.127,235.346 112.127,209.013 125.5,184.5 Z"/></g>
<g><path style="opacity:0.994" fill="#908c99" d="M 222.5,224.5 C 222.461,228.733 221.795,232.733 220.5,236.5C 220.335,232.818 220.501,229.152 221,225.5C 221.383,224.944 221.883,224.611 222.5,224.5 Z"/></g>
<g><path style="opacity:0.998" fill="#75727c" d="M 288.5,237.5 C 291.099,239.386 292.099,242.052 291.5,245.5C 290.512,242.924 289.512,240.257 288.5,237.5 Z"/></g>
<g><path style="opacity:0.2" fill="#322840" d="M 254.5,242.5 C 254.821,244.048 255.821,244.715 257.5,244.5C 256.432,245.434 255.099,245.768 253.5,245.5C 253.263,244.209 253.596,243.209 254.5,242.5 Z"/></g>
<g><path style="opacity:1" fill="#c8c8c8" d="M 219.5,241.5 C 217.324,254.718 214.657,267.718 211.5,280.5C 209.749,283.948 208.416,287.781 207.5,292C 209.345,295.154 208.678,297.321 205.5,298.5C 201.462,297.529 197.462,296.529 193.5,295.5C 187.305,297.352 181.639,296.352 176.5,292.5C 171.123,295.002 165.79,294.669 160.5,291.5C 159.707,291.931 158.873,292.265 158,292.5C 149.272,290.845 140.438,290.012 131.5,290C 128.746,288.024 126.412,288.524 124.5,291.5C 123.833,290.167 123.167,288.833 122.5,287.5C 121.552,290.715 120.219,291.048 118.5,288.5C 117.817,288.863 117.15,289.196 116.5,289.5C 110.755,275.778 109.089,261.445 111.5,246.5C 114.728,246.701 117.895,246.367 121,245.5C 122.396,246.394 123.896,247.061 125.5,247.5C 129.278,247.545 133.112,247.545 137,247.5C 138.737,248.62 140.571,249.62 142.5,250.5C 145.244,249.509 147.911,249.843 150.5,251.5C 151.949,250.383 153.616,249.716 155.5,249.5C 159.396,250.7 163.23,252.034 167,253.5C 172.891,253.276 178.891,253.276 185,253.5C 192.201,256.093 199.701,257.593 207.5,258C 208,258.5 208.5,259 209,259.5C 210.065,254.735 211.398,255.069 213,260.5C 213.72,258.888 213.554,257.388 212.5,256C 213.793,255.51 215.127,255.343 216.5,255.5C 216.523,253.4 215.856,251.567 214.5,250C 216.332,247.095 217.999,244.261 219.5,241.5 Z"/></g>
<g><path style="opacity:1" fill="#f2eeee" d="M 400.5,202.5 C 400.5,202.833 400.5,203.167 400.5,203.5C 399.5,205.886 398.833,208.053 398.5,210C 399.701,210.903 400.535,212.069 401,213.5C 402.103,218.515 403.27,223.515 404.5,228.5C 404.747,229.713 405.414,230.38 406.5,230.5C 409.853,259.027 405.853,286.361 394.5,312.5C 391.888,313.277 390.055,314.944 389,317.5C 388.094,321.626 386.928,325.626 385.5,329.5C 383.822,334.197 381.156,338.197 377.5,341.5C 376.448,341.351 375.448,341.517 374.5,342C 373,344.833 370.833,347 368,348.5C 367.506,350.134 367.34,351.801 367.5,353.5C 366.325,353.281 365.325,353.614 364.5,354.5C 360.548,357.742 357.048,361.408 354,365.5C 350.643,364.258 350.81,363.424 354.5,363C 353.126,360.101 351.626,359.934 350,362.5C 349.25,361.874 348.416,361.374 347.5,361C 349.558,359.51 350.891,357.51 351.5,355C 352.784,354.316 353.951,354.483 355,355.5C 356.144,352.92 356.978,350.253 357.5,347.5C 392.099,306.437 403.433,259.77 391.5,207.5C 392.338,207.158 392.672,206.492 392.5,205.5C 392.672,204.508 392.338,203.842 391.5,203.5C 390.226,201.007 389.56,198.341 389.5,195.5C 390.408,192.648 390.075,189.815 388.5,187C 388.63,185.941 389.13,185.108 390,184.5C 392.002,186.503 393.502,188.836 394.5,191.5C 394.837,196.147 396.837,199.814 400.5,202.5 Z"/></g>
<g><path style="opacity:1" fill="#cacaca" d="M 286.5,257.5 C 286.5,258.5 286.5,259.5 286.5,260.5C 287.552,260.351 288.552,260.517 289.5,261C 286.456,261.359 286.122,262.026 288.5,263C 286.1,263.186 283.766,263.686 281.5,264.5C 285.999,265.898 290.499,267.231 295,268.5C 295.725,267.941 296.558,267.608 297.5,267.5C 301.783,268.381 306.116,269.381 310.5,270.5C 312.106,269.923 313.772,269.59 315.5,269.5C 323.155,270.443 330.821,271.276 338.5,272C 339.665,273.084 340.998,273.917 342.5,274.5C 345.244,273.509 347.911,273.843 350.5,275.5C 351.949,274.383 353.616,273.716 355.5,273.5C 361.969,274.7 368.302,276.367 374.5,278.5C 375.328,277.585 376.328,276.919 377.5,276.5C 379.944,277.222 382.278,278.222 384.5,279.5C 385.318,276.893 385.818,274.226 386,271.5C 386.191,273.708 386.691,275.708 387.5,277.5C 386.964,281.314 385.964,284.981 384.5,288.5C 382.692,288.491 381.025,288.991 379.5,290C 379.833,290.333 380.167,290.667 380.5,291C 378.02,291.915 377.353,293.415 378.5,295.5C 377.066,297.22 376.233,299.22 376,301.5C 375.51,300.207 375.343,298.873 375.5,297.5C 372.116,297.34 368.783,297.673 365.5,298.5C 361.462,297.529 357.462,296.529 353.5,295.5C 342.249,296.417 331.249,295.084 320.5,291.5C 319.707,291.931 318.873,292.265 318,292.5C 313.372,291.628 308.705,290.628 304,289.5C 297.89,290.537 291.89,290.537 286,289.5C 281.522,288.726 277.022,287.726 272.5,286.5C 271.808,287.025 271.308,287.692 271,288.5C 266.49,284.922 261.324,283.588 255.5,284.5C 254.833,288.5 254.167,288.5 253.5,284.5C 252.167,284.5 250.833,284.5 249.5,284.5C 249.996,278.261 249.996,272.261 249.5,266.5C 249.5,265.167 249.5,263.833 249.5,262.5C 262.204,263.238 274.538,261.571 286.5,257.5 Z"/></g>
<g><path style="opacity:0.011" fill="#020103" d="M 107.5,263.5 C 108.159,266.455 108.492,269.455 108.5,272.5C 107.596,270.362 106.929,268.029 106.5,265.5C 106.543,264.584 106.876,263.917 107.5,263.5 Z"/></g>
<g><path style="opacity:0.361" fill="#473f4a" d="M 108.5,272.5 C 109.434,273.568 109.768,274.901 109.5,276.5C 107.891,275.335 107.557,274.001 108.5,272.5 Z"/></g>
<g><path style="opacity:1" fill="#c3c3c4" d="M 249.5,284.5 C 250.833,284.5 252.167,284.5 253.5,284.5C 254.167,288.5 254.833,288.5 255.5,284.5C 261.324,283.588 266.49,284.922 271,288.5C 271.308,287.692 271.808,287.025 272.5,286.5C 277.022,287.726 281.522,288.726 286,289.5C 291.89,290.537 297.89,290.537 304,289.5C 308.705,290.628 313.372,291.628 318,292.5C 318.873,292.265 319.707,291.931 320.5,291.5C 331.249,295.084 342.249,296.417 353.5,295.5C 357.462,296.529 361.462,297.529 365.5,298.5C 368.783,297.673 372.116,297.34 375.5,297.5C 375.343,298.873 375.51,300.207 376,301.5C 376.233,299.22 377.066,297.22 378.5,295.5C 377.353,293.415 378.02,291.915 380.5,291C 380.167,290.667 379.833,290.333 379.5,290C 381.025,288.991 382.692,288.491 384.5,288.5C 381.897,297.697 378.23,306.363 373.5,314.5C 373.631,313.761 373.464,313.094 373,312.5C 371.732,315.598 369.399,317.265 366,317.5C 359.845,316.199 353.678,314.866 347.5,313.5C 340.105,312.287 332.938,312.287 326,313.5C 324.941,313.37 324.108,312.87 323.5,312C 311.48,311.06 299.646,309.227 288,306.5C 285.224,307.648 282.557,307.314 280,305.5C 278.6,306.116 277.1,306.449 275.5,306.5C 269.29,306.215 263.29,305.215 257.5,303.5C 256.558,303.608 255.725,303.941 255,304.5C 254.667,303.167 254.333,301.833 254,300.5C 253.517,301.448 253.351,302.448 253.5,303.5C 248.602,303.637 246.602,301.137 247.5,296C 247.431,291.905 248.097,288.072 249.5,284.5 Z"/></g>
<g><path style="opacity:0.341" fill="#49444a" d="M 110.5,284.5 C 111.404,285.209 111.737,286.209 111.5,287.5C 109.519,286.895 109.185,285.895 110.5,284.5 Z"/></g>
<g><path style="opacity:0.224" fill="#383443" d="M 111.5,289.5 C 112.338,289.842 112.672,290.508 112.5,291.5C 110.576,291.289 110.243,290.623 111.5,289.5 Z"/></g>
<g><path style="opacity:1" fill="#b9b9ba" d="M 249.5,266.5 C 249.996,272.261 249.996,278.261 249.5,284.5C 248.097,288.072 247.431,291.905 247.5,296C 246.602,301.137 248.602,303.637 253.5,303.5C 253.351,302.448 253.517,301.448 254,300.5C 254.333,301.833 254.667,303.167 255,304.5C 255.725,303.941 256.558,303.608 257.5,303.5C 263.29,305.215 269.29,306.215 275.5,306.5C 277.1,306.449 278.6,306.116 280,305.5C 282.557,307.314 285.224,307.648 288,306.5C 299.646,309.227 311.48,311.06 323.5,312C 324.108,312.87 324.941,313.37 326,313.5C 332.938,312.287 340.105,312.287 347.5,313.5C 353.678,314.866 359.845,316.199 366,317.5C 369.399,317.265 371.732,315.598 373,312.5C 373.464,313.094 373.631,313.761 373.5,314.5C 366.256,328.974 356.59,341.641 344.5,352.5C 343.849,351.909 343.182,351.243 342.5,350.5C 340.69,352.623 339.357,354.957 338.5,357.5C 337.5,357.5 336.5,357.5 335.5,357.5C 336.608,355.305 336.441,353.305 335,351.5C 334.174,353.405 333.007,353.739 331.5,352.5C 331.709,351.914 332.043,351.414 332.5,351C 329.738,348.192 326.738,348.025 323.5,350.5C 319.671,350.113 316.004,349.113 312.5,347.5C 311.707,347.931 310.873,348.265 310,348.5C 301.272,346.845 292.438,346.012 283.5,346C 281.757,344.365 279.923,344.198 278,345.5C 276.604,344.606 275.104,343.939 273.5,343.5C 269.722,343.455 265.888,343.455 262,343.5C 260.51,342.683 259.01,341.85 257.5,341C 251.506,340.927 245.673,340.094 240,338.5C 237.224,339.648 234.557,339.314 232,337.5C 229.525,339.752 226.859,339.752 224,337.5C 221.79,338.749 219.624,338.582 217.5,337C 211.167,336.667 204.833,336.333 198.5,336C 196.63,334.634 194.63,333.467 192.5,332.5C 191.614,333.325 191.281,334.325 191.5,335.5C 188.995,335.02 186.662,334.02 184.5,332.5C 183.707,332.931 182.873,333.265 182,333.5C 175.845,332.199 169.678,330.866 163.5,329.5C 159.631,331.06 155.964,330.726 152.5,328.5C 149.945,330.882 147.278,330.882 144.5,328.5C 143.808,329.025 143.308,329.692 143,330.5C 142.692,329.692 142.192,329.025 141.5,328.5C 137.785,329.982 135.619,328.649 135,324.5C 134.722,325.416 134.222,326.082 133.5,326.5C 127.725,317.952 122.725,308.952 118.5,299.5C 117.518,296.237 116.851,292.903 116.5,289.5C 117.15,289.196 117.817,288.863 118.5,288.5C 120.219,291.048 121.552,290.715 122.5,287.5C 123.167,288.833 123.833,290.167 124.5,291.5C 126.412,288.524 128.746,288.024 131.5,290C 140.438,290.012 149.272,290.845 158,292.5C 158.873,292.265 159.707,291.931 160.5,291.5C 165.79,294.669 171.123,295.002 176.5,292.5C 181.639,296.352 187.305,297.352 193.5,295.5C 197.462,296.529 201.462,297.529 205.5,298.5C 208.678,297.321 209.345,295.154 207.5,292C 208.416,287.781 209.749,283.948 211.5,280.5C 210.928,287.17 210.262,293.837 209.5,300.5C 209.401,316.905 217.401,323.738 233.5,321C 238.858,319.818 243.858,317.818 248.5,315C 246.051,310.161 244.718,304.994 244.5,299.5C 245.216,288.219 246.882,277.219 249.5,266.5 Z"/></g>
<g><path style="opacity:1" fill="#cbc5cd" d="M 394.5,312.5 C 392.26,318.65 389.26,324.316 385.5,329.5C 386.928,325.626 388.094,321.626 389,317.5C 390.055,314.944 391.888,313.277 394.5,312.5 Z"/></g>
<g><path style="opacity:1" fill="#b2b2b2" d="M 344.5,352.5 C 332.375,365.399 318.041,375.066 301.5,381.5C 302.833,380.167 304.167,378.833 305.5,377.5C 307.807,376.347 310.14,375.18 312.5,374C 313.833,373 313.833,372 312.5,371C 310.109,370.713 307.776,370.213 305.5,369.5C 305.5,370.5 305.5,371.5 305.5,372.5C 301.288,369.934 296.621,368.268 291.5,367.5C 289.616,367.716 287.949,368.383 286.5,369.5C 284.5,368.167 282.5,366.833 280.5,365.5C 279.833,366.167 279.167,366.833 278.5,367.5C 276.891,366.112 275.058,365.112 273,364.5C 266.722,365.445 260.555,365.445 254.5,364.5C 249.845,363.488 245.178,362.488 240.5,361.5C 239.784,362.311 238.95,362.978 238,363.5C 230.609,361.776 223.109,360.61 215.5,360C 213.182,358.007 210.516,356.841 207.5,356.5C 207.719,357.675 207.386,358.675 206.5,359.5C 204.197,356.997 201.531,356.33 198.5,357.5C 190.041,356.082 181.708,354.082 173.5,351.5C 172.149,352.366 171.316,353.366 171,354.5C 169.237,354.025 167.57,353.358 166,352.5C 164.491,353.09 162.991,353.756 161.5,354.5C 163.162,355.327 164.495,356.493 165.5,358C 164.584,358.278 163.918,358.778 163.5,359.5C 151.369,350.372 141.369,339.372 133.5,326.5C 134.222,326.082 134.722,325.416 135,324.5C 135.619,328.649 137.785,329.982 141.5,328.5C 142.192,329.025 142.692,329.692 143,330.5C 143.308,329.692 143.808,329.025 144.5,328.5C 147.278,330.882 149.945,330.882 152.5,328.5C 155.964,330.726 159.631,331.06 163.5,329.5C 169.678,330.866 175.845,332.199 182,333.5C 182.873,333.265 183.707,332.931 184.5,332.5C 186.662,334.02 188.995,335.02 191.5,335.5C 191.281,334.325 191.614,333.325 192.5,332.5C 194.63,333.467 196.63,334.634 198.5,336C 204.833,336.333 211.167,336.667 217.5,337C 219.624,338.582 221.79,338.749 224,337.5C 226.859,339.752 229.525,339.752 232,337.5C 234.557,339.314 237.224,339.648 240,338.5C 245.673,340.094 251.506,340.927 257.5,341C 259.01,341.85 260.51,342.683 262,343.5C 265.888,343.455 269.722,343.455 273.5,343.5C 275.104,343.939 276.604,344.606 278,345.5C 279.923,344.198 281.757,344.365 283.5,346C 292.438,346.012 301.272,346.845 310,348.5C 310.873,348.265 311.707,347.931 312.5,347.5C 316.004,349.113 319.671,350.113 323.5,350.5C 326.738,348.025 329.738,348.192 332.5,351C 332.043,351.414 331.709,351.914 331.5,352.5C 333.007,353.739 334.174,353.405 335,351.5C 336.441,353.305 336.608,355.305 335.5,357.5C 336.5,357.5 337.5,357.5 338.5,357.5C 339.357,354.957 340.69,352.623 342.5,350.5C 343.182,351.243 343.849,351.909 344.5,352.5 Z"/></g>
<g><path style="opacity:1" fill="#ababab" d="M 305.5,377.5 C 296.955,380.626 288.289,383.459 279.5,386C 236.666,394.538 197.999,385.705 163.5,359.5C 163.918,358.778 164.584,358.278 165.5,358C 164.495,356.493 163.162,355.327 161.5,354.5C 162.991,353.756 164.491,353.09 166,352.5C 167.57,353.358 169.237,354.025 171,354.5C 171.316,353.366 172.149,352.366 173.5,351.5C 181.708,354.082 190.041,356.082 198.5,357.5C 201.531,356.33 204.197,356.997 206.5,359.5C 207.386,358.675 207.719,357.675 207.5,356.5C 210.516,356.841 213.182,358.007 215.5,360C 223.109,360.61 230.609,361.776 238,363.5C 238.95,362.978 239.784,362.311 240.5,361.5C 245.178,362.488 249.845,363.488 254.5,364.5C 260.555,365.445 266.722,365.445 273,364.5C 275.058,365.112 276.891,366.112 278.5,367.5C 279.167,366.833 279.833,366.167 280.5,365.5C 282.5,366.833 284.5,368.167 286.5,369.5C 287.949,368.383 289.616,367.716 291.5,367.5C 296.621,368.268 301.288,369.934 305.5,372.5C 305.5,371.5 305.5,370.5 305.5,369.5C 307.776,370.213 310.109,370.713 312.5,371C 313.833,372 313.833,373 312.5,374C 310.14,375.18 307.807,376.347 305.5,377.5 Z"/></g>
<g><path style="opacity:0.01" fill="#000000" d="M 172.5,379.5 C 172.5,379.167 172.5,378.833 172.5,378.5C 175.46,379.032 175.793,379.699 173.5,380.5C 172.833,380.5 172.5,380.167 172.5,379.5 Z"/></g>
<g><path style="opacity:0.01" fill="#020013" d="M 188.5,386.5 C 192.179,386.751 195.513,387.918 198.5,390C 195.979,389.27 193.313,388.77 190.5,388.5C 189.833,387.833 189.167,387.167 188.5,386.5 Z"/></g>
<g><path style="opacity:0.369" fill="#4f4953" d="M 275.5,390.5 C 276.209,389.596 277.209,389.263 278.5,389.5C 277.895,391.481 276.895,391.815 275.5,390.5 Z"/></g>
<g><path style="opacity:0.012" fill="#1b181c" d="M 212.5,390.5 C 213.609,390.557 214.609,390.89 215.5,391.5C 214.221,392.715 213.221,392.382 212.5,390.5 Z"/></g>
<g><path style="opacity:0.392" fill="#443f4d" d="M 265.5,392.5 C 266.568,391.566 267.901,391.232 269.5,391.5C 268.597,393.62 267.263,393.954 265.5,392.5 Z"/></g>
<g><path style="opacity:0.03" fill="#181725" d="M 217.5,391.5 C 218.708,392.234 220.041,392.567 221.5,392.5C 222.167,393.833 222.833,393.833 223.5,392.5C 224.391,393.11 225.391,393.443 226.5,393.5C 227.152,394.725 228.319,395.392 230,395.5C 232.008,395.693 233.508,395.026 234.5,393.5C 241.5,393.5 248.5,393.5 255.5,393.5C 255.158,394.338 254.492,394.672 253.5,394.5C 247.491,394.334 241.491,394.501 235.5,395C 238.877,395.452 242.211,396.118 245.5,397C 234.054,397.702 222.72,396.869 211.5,394.5C 210.274,394.52 209.274,394.853 208.5,395.5C 207.508,395.672 206.842,395.338 206.5,394.5C 210.564,394.225 214.23,393.225 217.5,391.5 Z M 226.5,393.5 C 229.167,393.5 231.833,393.5 234.5,393.5C 233.508,395.026 232.008,395.693 230,395.5C 228.319,395.392 227.152,394.725 226.5,393.5 Z"/></g>
<g><path style="opacity:0.031" fill="#030116" d="M 255.5,393.5 C 255.833,393.5 256.167,393.5 256.5,393.5C 257.949,395.164 259.949,395.998 262.5,396C 259.692,396.993 256.859,397.827 254,398.5C 253.544,397.256 254.044,396.423 255.5,396C 254.584,395.722 253.918,395.222 253.5,394.5C 254.492,394.672 255.158,394.338 255.5,393.5 Z"/></g>
<g><path style="opacity:1" fill="#d8d2d9" d="M 303.5,387.5 C 303.423,388.75 302.756,389.583 301.5,390C 290.126,395.401 278.126,398.234 265.5,398.5C 278.651,395.523 291.317,391.856 303.5,387.5 Z"/></g>
</svg>
